<svg id="Layer_1" data-name="Layer 1" xmlns="http://www.w3.org/2000/svg" viewBox="0 0 274.26 44.68"><title>Bella Site Logo</title><path d="M4,14.12C6.15,23.28,4.25,33,5.71,42.2c.3,1.9,3.19,1.09,2.89-.8-1.47-9.25.45-18.88-1.75-28.07-.45-1.88-3.34-1.09-2.89.79Z"/><path d="M.44,3.27C2.57,4.92,4.66,6.65,6.91,8.13,8.53,9.19,10,6.59,8.43,5.54c-2-1.34-3.95-2.9-5.87-4.4a1.56,1.56,0,0,0-2.12,0,1.51,1.51,0,0,0,0,2.13Z"/><path d="M5.81,1.09a6.12,6.12,0,0,1-1.87,3A20.37,20.37,0,0,0,1.64,7c-1.1,1.6,1.5,3.1,2.59,1.52,1.44-2.09,4.08-4,4.47-6.64C9,0,6.09-.82,5.81,1.09Z"/><path d="M22.54,16.09c-.26-7.15-14.59-8.2-13.29,0,.28,1.78,1.57,3.3,2.67,4.63a94.63,94.63,0,0,1,5.89,7.64c1.7,2.55,4.53,5.92,4.1,9.19s-4.26,4.44-7,3c-2-1-2.89-3.44-3.38-5.53-.44-1.88-3.33-1.09-2.89.79.93,4,2.65,7,6.78,8,3.54.92,7.86-.35,9.21-4.06,1.43-3.94-1.13-8.4-3.22-11.58-1.32-2-2.65-4.12-4.13-6-.9-1.16-2-2.17-2.9-3.3-.48-.56-.94-1.14-1.37-1.74q2.79-6.69,6.58-1c.07,1.92,3.07,1.93,3,0Z"/><path d="M29.07,42.1c1-5.23.19-10.5,0-15.77-.19-4.93.55-9.75,1-14.64l-2.56,1.06C34.39,21.21,37,33.07,40.94,43l2.5-1.46c-2.19-2-5.07-3-7.53-4.64-3.81-2.52-7.16-5.64-11-8.11-1.63-1-3.14,1.56-1.51,2.59,3.38,2.16,6.36,4.75,9.59,7.1,2.59,1.9,6,3,8.36,5.18,1,.92,3.11,0,2.51-1.46-4.18-10.44-7-22.66-14.25-31.57-.9-1.1-2.46-.09-2.56,1.07C26.66,16,26,20.23,26,24.55c.08,5.54,1.19,11.25.15,16.75-.35,1.89,2.54,2.7,2.9.8Z"/><path d="M40.26,9.39c.9,5.61,2.44,11.16,3.45,16.76a144.36,144.36,0,0,1,2,16.58c.12,1.91,3.12,1.93,3,0A129.48,129.48,0,0,0,46.93,27c-1.14-6.15-2.79-12.29-3.77-18.44-.31-1.9-3.2-1.09-2.9.8Z"/><path d="M45.86,25.48c2.4-2.26,7.69-.92,10,.73A10.56,10.56,0,0,1,60,34.42c.24,7.47-8.86,6.56-13.75,4.8-1.82-.65-2.6,2.25-.79,2.9,8,2.89,18.79,1.32,17.48-9.35a13,13,0,0,0-7.41-10.1c-3.58-1.65-8.7-2.19-11.76.69-1.42,1.32.71,3.44,2.12,2.12Z"/><path d="M61.56,11.21H72.34c.16,0,2.55.18,1.94-.1,1.74.79,3.27-1.79,1.51-2.59-1.59-.72-3.89-.31-5.58-.31H61.56a1.5,1.5,0,0,0,0,3Z"/><path d="M60.73,10.42c1.36,9.73,2.69,19.39,4.11,29.11.42,2.88.8,3.54,4,3.92A30.41,30.41,0,0,0,82,41.91c1.82-.61,1-3.51-.79-2.89a26.5,26.5,0,0,1-11,1.52c-2.75-.3-2.25-.63-2.64-3-.23-1.37-.39-2.76-.6-4.13-1.18-7.93-2.19-15.85-3.31-23.81-.26-1.9-3.15-1.09-2.89.8Z"/><path d="M64.85,28.18c4-.18,8.36-.81,12.36-.15,1.88.31,2.7-2.58.79-2.9-4.3-.71-8.83-.15-13.15.05-1.92.09-1.93,3.09,0,3Z"/><path d="M80,9.19c1,5.13,1.53,10.29,2.6,15.41a125,125,0,0,1,2.55,14.22c.24,2.6.19,3.31,2.74,3.92,2,.47,8.51,1.44,10.05-.39,1.23-1.47-.88-3.61-2.12-2.12-.11.13-4.21-.29-4.82-.33-.35,0-3.76-.82-2.7.07-1-.86-1-7.48-1.4-9.25-1.51-7.43-2.59-14.89-4-22.33-.36-1.9-3.26-1.09-2.9.8Z"/><path d="M95.85,7.76c1.23,9.62,3,19.17,4.32,28.79.26,1.92-.2,5.37,2,6.33,2.57,1.11,8.17-.63,10.55-1.59,1.77-.71,1-3.61-.79-2.89a23.45,23.45,0,0,1-6.43,1.39l-1.14.11c-1.16.47-1.47.2-.92-.79-1.11-2.29-.84-6.33-1.27-8.83-1.27-7.4-2.41-15.06-3.36-22.52-.24-1.89-3.24-1.91-3,0Z"/><path d="M114.12,39.94a57.69,57.69,0,0,0,1.11-16c-.17-2.14-1.73-14.12.63-15.2l-1.81-.23c4.18,4,7,11.39,8.79,16.77.82,2.48,1.63,5,2.51,7.44.82,2.27,2.84,5.32,2.86,7.73l2.25-1.29c-3.12-1.64-6.05-3.58-9.07-5.38-3.68-2.2-7.52-3.92-10.84-6.71-1.47-1.23-3.61.88-2.12,2.12,5.95,5,13.63,9,20.52,12.56a1.52,1.52,0,0,0,2.26-1.3c0-2.32-1.55-4.73-2.35-6.87-1.32-3.5-2.38-7.07-3.61-10.6-1.9-5.49-4.87-12.52-9.08-16.59a1.56,1.56,0,0,0-1.82-.24c-2.89,1.32-2.47,8.11-2.47,10.44,0,7.78.82,14.83-.65,22.56-.36,1.89,2.53,2.69,2.89.8Z"/><path d="M159.34,30.49c0-4.32-5.5-6.52-9.12-7-5.28-.74-7,4.44-7.26,8.83s1.41,9.67,5.76,11.44c4.54,1.85,9.67-.06,10.58-5.18.34-1.89-2.56-2.7-2.89-.8-.61,3.37-3.82,4.44-6.68,2.9-2.6-1.4-3.66-4.07-3.78-6.91a14.81,14.81,0,0,1,.2-2.82c.29-1.88,1.62-4.05,3.73-4.48,1.81-.36,6.47,2.28,6.46,4a1.5,1.5,0,0,0,3,0Z"/><path d="M157,4.63c-.23,7.27-.08,14.55-.31,21.84-.18,5.55-.3,11.68.79,17.13.38,1.89,3.27,1.09,2.9-.8-1.16-5.77-.82-12.28-.63-18.14.21-6.69,0-13.36.25-20,.06-1.93-2.94-1.93-3,0Z"/><path d="M163.11,9.18c4.49.35,9,.13,13.5.78,1.89.27,2.7-2.62.8-2.9-4.74-.68-9.53-.51-14.3-.88-1.92-.16-1.91,2.84,0,3Z"/><path d="M161.85,8.21c-.21,5.52.42,10.9.24,16.44-.15,4.87-1.13,11,0,15.8.48,2,1.16,2.31,3.24,2.48s4.11-.34,6.19-.24c2.72.13,5.23.82,8,.55,1.91-.19,1.93-3.19,0-3-3.6.35-7.16-.75-10.78-.55-.85.05-4.38-.07-3.62.76-.61-.67-.15-4.14-.18-5.21-.14-4.83.13-9.69.3-14.53.14-4.2-.53-8.29-.37-12.5.08-1.93-2.92-1.93-3,0Z"/><path d="M163.86,25.58c3.55.13,7.08-.07,10.63.07,1.93.07,1.93-2.93,0-3-3.55-.14-7.08.06-10.63-.07-1.93-.08-1.92,2.92,0,3Z"/><path d="M193.26,10.16c0-4.14-5.77-7.15-8.77-4-2.4,2.5-3.08,6.18-3.73,9.41a55.22,55.22,0,0,0-1.37,13.13c.19,5.55.59,13.88,7.51,15.14s10.73-3.78,11.3-9.87c.19-1.92-2.82-1.91-3,0-.54,5.73-7.81,9.95-11.21,4.14-1.84-3.14-1.64-7.86-1.62-11.38a58.1,58.1,0,0,1,1.44-11.14,28.29,28.29,0,0,1,.86-3.75,16.28,16.28,0,0,1,1.5-2.94c2.28-.94,3.65-.51,4.09,1.27a1.5,1.5,0,0,0,3,0Z"/><path d="M213.21,15.55c.19-4.64-7-14.52-12.27-10.23-2.62,2.13-2.39,6.54-2.35,9.46.09,6.49-.7,13.3-.21,19.75.38,5,8.38,13.28,13.19,7.75,2.33-2.69,1.67-8,1.78-11.25.2-5.48.85-10.94.08-16.4-.28-1.91-3.17-1.1-2.9.8.81,5.69-.07,11.52-.23,17.23-.08,3,.35,9.91-4.71,7.58-3.58-1.65-4.08-5.24-4.14-8.83-.09-6.16-.17-12.7.21-18.83.18-2.93.24-6.13,3.92-4.16,2.65,1.42,4.76,4,4.63,7.13-.08,1.93,2.92,1.92,3,0Z"/><path d="M229,10.36c-.93-4.55-7.7-10-11.2-4.7-1.68,2.56-1.28,6.42-1.37,9.33-.17,5.45-.76,11-.44,16.48.33,5.64,1.65,12.34,8.67,12.08,5.35-.2,8.76-7,9-11.77.12-1.93-2.88-1.93-3,0-.19,3.26-2.58,8.62-6.38,8.68-5.21.07-5.32-7-5.38-10.7-.07-4,.28-8.11.4-12.14.07-2.09.06-4.2.2-6.28a10.67,10.67,0,0,1,.27-2.58q5.31-2.79,6.29,2.4c.39,1.89,3.28,1.09,2.9-.8Z"/><path d="M247.87,8.62C246.09,4.79,240,.24,237,5.33c-2,3.39-1.33,8.27-1.44,12-.16,4.94-.88,10.26-.44,15.18.41,4.47,3.28,10.85,8.73,10.37,4.92-.42,8.91-8.08,10.31-12.16.64-1.83-2.26-2.62-2.89-.8-1,2.77-4.69,10-8,9.88-3.95-.15-5.06-5.92-5.1-8.92-.06-4.2.27-8.44.4-12.63.07-2.44,0-5,.23-7.41-.41-3,1-4.16,4.19-3.37a7.83,7.83,0,0,1,2.3,2.68c.81,1.75,3.4.23,2.59-1.52Z"/><path d="M269.33,5.21c-3.06-1.23-5.95-2.72-8.56,0-3.08,3.28-3.17,9.26-3.33,13.45-.25,6.24-3.32,21.83,6,23.33S273,36.35,273.6,29.25c.59-6.73,2.31-19.65-4.15-24.43-1.55-1.15-3.05,1.45-1.51,2.59,3.66,2.71,3.22,11.06,3.09,15.11-.08,2.53-.27,5.05-.48,7.57-.34,3.86.54,8.49-5,9-7.48.73-5.42-11.29-5.27-15.81.11-3.59,0-7.25.76-10.78.37-1.74,1.65-5.3,3.58-5.87.82-.25,3.18,1.15,3.89,1.44,1.79.72,2.57-2.18.8-2.89Z"/></svg>